<svg version="1.2" xmlns="http://www.w3.org/2000/svg" viewBox="0 0 1383 1055" width="200" height="153">
	<title>vecteezy_royal-lion-heraldic-logo_14994963-ai</title>
	<style>
		.s0 { fill: #a98d15 } 
	</style>
	<g id="Layer 1">
		<g id="&lt;Group&gt;">
			<g id="&lt;Group&gt;">
				<g id="&lt;Group&gt;">
					<path id="&lt;Path&gt;" class="s0" d="m1166.7 720.3c-79.5 13.7-129.6-45-168.4-44.5-15.1-0.2-28.8 3-39.8 14.8 41.9-26.8 138.8 71.8 208.2 29.7z"/>
				</g>
				<g id="&lt;Group&gt;">
					<path id="&lt;Path&gt;" class="s0" d="m205.7 720.3c79.5 13.7 129.7-45 168.4-44.5 15.1-0.2 28.8 3 39.8 14.8-41.8-26.8-138.8 71.8-208.2 29.7z"/>
				</g>
				<g id="&lt;Group&gt;">
					<path id="&lt;Compound Path&gt;" fill-rule="evenodd" class="s0" d="m1186.5 709.4c5.1 3.3 6.1 6.1 4 9.7-2 3.5-5.7 4-10.2 1.5-6.7-3.9-8.7-11.6-4.4-18 42.8-42.3 105.5-1.8 132.5-9.4 49-16.2-7.4-46.8-10.2-27.8 0.7 1.1-0.6 4.5-1.9 5.9-4.1 4.2-9.4 3.9-14.3 2-5.5-2.1-8.6-6.9-8-12.4 21.4-40.5 66.3-10.3 68 3.8 1.9-0.7 3.3-2.7 7.1-5.4 7.5 43.1-30.4 59.8-30.4 59.8 0 0 1.2 4.5 9.6 7.5-45.9 6.3-54.6-26.7-84.2-27.5 10 10.3-21.5 31.8-24.4 10.6 0.3 0.1 0.8 0.1 0.8 0.3 1.4 3.6 3.5 5.6 7.4 3.4 18.1-10.5-18.9-32.6-41.4-4zm58.9-20.8c13.9 4 27.6 8.4 41.7 11.7 6.6 1.6 13.9 2 20.7 1 9-1.3 16.8-5.7 20.1-15.4-4.5 5-9.9 8.2-16.4 9.9-12.7 3.4-25.2 2.1-37.7-1.3-9.3-2.6-28.3-6.4-28.4-5.9z"/>
				</g>
				<g id="&lt;Group&gt;">
					<path id="&lt;Compound Path&gt;" fill-rule="evenodd" class="s0" d="m148.6 713.4c3.9 2.2 6 0.2 7.3-3.4 0.1-0.2 0.6-0.2 0.9-0.3-2.9 21.2-34.5-0.3-24.4-10.6-29.6 0.8-38.3 33.8-84.3 27.5 8.5-3 9.7-7.5 9.7-7.5 0 0-37.9-16.7-30.4-59.8 3.8 2.7 5.2 4.7 7.1 5.4 1.6-14.1 46.5-44.3 68-3.8 0.6 5.5-2.5 10.3-8 12.4-4.9 1.9-10.3 2.2-14.3-2-1.4-1.4-2.6-4.8-1.9-5.9-2.8-19-59.2 11.6-10.2 27.8 27 7.6 89.7-32.9 132.4 9.4 4.4 6.4 2.4 14.1-4.3 18-4.5 2.5-8.2 2-10.2-1.5-2.1-3.6-1.1-6.4 4-9.7-22.5-28.6-59.5-6.5-41.4 4zm-46-18.9c-12.4 3.4-24.9 4.7-37.6 1.3-6.6-1.7-11.9-4.9-16.4-9.9 3.2 9.7 11.1 14.1 20.1 15.4 6.7 1 14.1 0.6 20.7-1 14-3.3 27.8-7.7 41.7-11.7-0.1-0.5-19.1 3.3-28.5 5.9z"/>
				</g>
				<g id="&lt;Group&gt;">
					<g id="&lt;Group&gt;">
						<path id="&lt;Path&gt;" class="s0" d="m970.3 249.4c-15 27.3-26.9-1.9-52.2 0 23.5-13.9 29 18.1 52.2 0z"/>
					</g>
					<g id="&lt;Group&gt;">
						<path id="&lt;Path&gt;" class="s0" d="m424.8 253.4c15 27.3 26.8-1.9 52.1 0-23.5-13.9-28.9 18.1-52.1 0z"/>
					</g>
					<g id="&lt;Group&gt;">
						<g id="&lt;Group&gt;">
							<g id="royal ride">
								<path id="&lt;Compound Path&gt;" fill-rule="evenodd" class="s0" d="m125 845.2v-25.8q0-26.3-0.3-31.1-0.5-7-6.3-8.4-2.1-0.4-5.7-0.4-2.5 0-2.5-1.3 0-1.3 3.2-1.3 4.5 0 11.9 0.2 7.3 0.2 8.2 0.2 2.4 0 10.4-0.2 8-0.2 10.2-0.2 17.7 0 27 6.3 3.6 2.5 6.4 7.4 3.5 5.9 3.5 12.6 0 17.2-19.3 32.9 15.9 20.2 17.6 21.9 8.5 10.7 14.2 16.6 8 8.4 16.4 10 1.7 0.1 3.3 0.3 2.5 0.3 2.5 1.3 0 1.4-2.8 1.4h-13.9q-10.5 0-15.6-2.7-7.2-3.9-20.1-21.6-6.3-8.9-14.5-20.2-0.9-1-2.6-1h-12.8q-1.2 0-1.2 1.1v2.1q0 24.7 0.8 31.1 0.9 7.4 5.7 8 4.4 0.6 7.2 0.6 1.7 0 1.7 1.2 0 1.4-2.9 1.4-5 0-13.1-0.2-8.1-0.2-8.4-0.2-1.1 0-7.8 0.2-6.7 0.2-10.1 0.2-2.9 0-2.9-1.4 0-1 3.2-1.3 2.2-0.3 4.4-0.5 3.4-0.7 4.2-8 0.8-5.8 0.8-31.2zm17.2-58.8v44.5q0 2.2 1.4 2.7 4.1 1.4 11.1 1.4 7 0 10.4-2.5 8.6-6.2 8.6-21.9 0-13.9-7.9-21.3-6.3-5.5-14.5-5.5-7 0-8.3 0.8-0.8 0.5-0.8 1.8z"/>
								<path id="&lt;Compound Path&gt;" fill-rule="evenodd" class="s0" d="m299.1 889.7q-29 0-45.2-19.1-13.8-15.9-13.8-38.3 0-22.2 13.8-38.1 16.5-19.4 46.7-19.4 27.2 0 43.2 14.8 15.9 14.8 15.9 40 0 25.8-16.4 42.7-16.8 17.4-44.2 17.4zm6.2-7.3q12.3 0 20.8-7.8 13.1-11.9 13.1-39.6 0-24-12.4-38.9-12-14.2-30.5-14.2-15.1 0-24.3 9.2-11.7 11.7-11.7 36.6 0 23.6 12 38.7 12.5 16 33 16z"/>
								<path id="&lt;Compound Path&gt;" class="s0" d="m428.7 861.7v-12q0-7.8-3.3-15.4-0.9-1.8-11.5-19.2-10.7-17.4-14.3-23-5.4-8-10.1-10.7-3.4-1.9-6.2-1.9-2.2 0-2.2-1.3 0-1.3 2.8-1.3 1 0 8.4 0.2 7.4 0.2 10.1 0.2 1.1 0 6.6-0.2 5.4-0.2 9-0.2 2.2 0 2.2 1.3 0 0.7-3.2 1.6-2 0.4-2 2.6 0 1.4 1.7 5 0.6 1.3 24.9 43.8 10-17.8 22-40.3 2-4.5 2-7.6 0-2.9-2.8-3.6-2.9-0.6-2.9-1.5 0-1.3 2.5-1.3 2.5 0 7.1 0.2 4.6 0.2 6.7 0.2 1.6 0 8-0.2 6.3-0.2 7.6-0.2 2.7 0 2.7 1.1 0 1.5-2.9 1.5-2.8 0-6.3 1.8-3.5 1.7-8 7.1-3.5 4.3-14.8 23-11.2 18.8-13.3 23.6-2.2 5.3-2.2 14.7v12q0 12.9 0.8 16.7 0.9 5.4 5.7 6 4.3 0.6 7.4 0.6 2.4 0 2.4 1.2 0 1.4-3.1 1.4-5.3 0-13.2-0.2-7.9-0.2-9.2-0.2-1.6 0-8.5 0.2-6.9 0.2-9.8 0.2-3.2 0-3.2-1.4 0-0.9 3.2-1.3 2-0.3 4.2-0.5 4.1-0.9 4.6-8 0.4-6.3 0.4-14.7z"/>
								<path id="&lt;Compound Path&gt;" fill-rule="evenodd" class="s0" d="m569.6 849.4h-32.6q-0.9 0-1.4 1.2l-7.9 20.9q-2.2 5.9-2.2 9 0 4.5 5.9 4.5h2.2q2.2 0 2.2 1.2 0 1.4-2.5 1.4-2.3 0-7.8-0.2-5.5-0.2-7.7-0.2-12.8 0.4-17.3 0.4-2.8 0-2.8-1.4 0-1.2 1.8-1.2 2.3 0 4.5-0.3 4.7-0.6 7.6-4.1 2.4-2.8 4.9-9.1l36.7-92q2.4-5.9 4.1-5.9 1.6 0 3.7 4.7 13.5 34 36.3 90.1 6.2 14.6 12.9 16 2.6 0.6 6.1 0.6 1.9 0 1.9 1.2 0 0.9-1.4 1.1-1.5 0.3-5.3 0.3-18.2 0-27.7-0.3-4.4-0.1-4.4-1.1 0-1.2 2.1-1.3 2.3-0.8 1.3-3.4l-11.7-31.1q-0.5-1-1.5-1zm-29.7-7.3h26.9q1.1 0 0.8-0.9l-13.2-36.2q-0.3-1.3-0.7-1.3-0.6 0-0.9 1.3l-13.5 36q-0.3 1.1 0.6 1.1z"/>
								<path id="&lt;Compound Path&gt;" class="s0" d="m672.3 819.4v25.8q0 16.5 0.4 21.8 0.6 7.9 2.7 9.7 3.6 3.2 17.7 3.2 13.3 0 17.1-4.1 3.2-3.5 3.8-8.8 0.3-2.2 1.6-2.2 1.2 0 1.2 2.5 0 8.8-2.2 16.8-0.9 3.1-3.5 3.7-1 0.3-5.7 0.3-11.7 0-24.8-0.5-13-0.4-17.8-0.4-1.4 0-8.3 0.2-7 0.2-10.2 0.2-2.9 0-2.9-1.4 0-1 3.2-1.3 2.2-0.3 4.4-0.5 3.4-0.7 4.2-8 0.8-5.8 0.8-31.2v-25.8q0-26.3-0.3-31.1-0.3-5.4-3.2-7.3-2.4-1.5-7.9-1.5-2.5 0-2.5-1.3 0-1.3 3.2-1.3 3.8 0 11.1 0.2 7.3 0.2 9 0.2 1.4 0 9.1-0.2 7.7-0.2 10.8-0.2 3 0 3 1.3 0 1.3-2.6 1.3-3.2 0-5.7 0.4-5 0.9-5.4 8.4-0.3 4.8-0.3 31.1z"/>
								<path id="&lt;Compound Path&gt;" fill-rule="evenodd" class="s0" d="m852.5 846.9l0.2-25.8q0.1-26.2-0.2-31-0.4-7.1-6.2-8.4-2.1-0.5-5.7-0.5-2.5 0-2.5-1.3 0-1.4 3.2-1.3 4.6 0 11.9 0.2 7.3 0.3 8.2 0.3 2.5 0 10.5-0.1 7.9-0.2 10.1-0.2 17.8 0.1 27 6.4 3.6 2.6 6.4 7.6 3.4 5.8 3.4 12.6-0.1 17.1-19.5 32.7 15.8 20.3 17.4 22.1 8.5 10.7 14.1 16.6 8.1 8.4 16.4 10.1 1.8 0.1 3.4 0.3 2.4 0.3 2.4 1.3 0 1.5-2.7 1.5l-14-0.1q-10.5-0.1-15.6-2.9-7.2-3.8-20-21.7-6.2-8.9-14.3-20.3-0.9-1-2.7-1l-12.7-0.1q-1.2 0-1.2 1.2v2q-0.1 24.8 0.5 31.2 0.9 7.4 5.7 8 4.4 0.6 7.2 0.6 1.7 0 1.7 1.2 0 1.5-2.9 1.5-5-0.1-13.1-0.3-8.1-0.3-8.4-0.3-1.1 0-7.8 0.2-6.7 0.2-10.1 0.1-2.9 0-2.9-1.4 0-1.1 3.2-1.3 2.2-0.3 4.4-0.5 3.4-0.7 4.3-8 0.8-5.7 0.9-31.2zm17.6-58.7l-0.2 44.6q0 2.2 1.3 2.6 4.1 1.5 11.1 1.6 7 0 10.4-2.5 8.7-6.2 8.8-21.9 0.1-13.9-7.8-21.3-6.3-5.6-14.5-5.6-7-0.1-8.3 0.8-0.8 0.4-0.8 1.7z"/>
								<path id="&lt;Compound Path&gt;" fill-rule="evenodd" class="s0" d="m1038.7 846.8v-26q0-26.5-0.2-31.4-0.5-7.1-6.2-8.4-2.1-0.5-5.7-0.5-2.4 0-2.4-1.3 0-1.3 3.2-1.3 4.3 0 11.7 0.2 7.4 0.2 9 0.2 1.7 0 9.5-0.2 7.8-0.2 12.7-0.2 19.4 0 29.6 2 17.8 3.7 28.1 14.8 14 15 14 37.6 0 24.8-15.7 41.2-16.7 17.5-48.2 17.5-5.7 0-16.6-0.9-11-0.9-14.1-0.9-1.3 0-8.2 0.2-6.8 0.3-10 0.3-2.8 0-2.8-1.5 0-1 3.1-1.3 2.2-0.3 4.3-0.5 3.4-0.7 4.2-8.1 0.7-5.8 0.7-31.5zm18-28.4v18.6q0 23.4 0.3 29.9 0.5 9.5 1.6 11.2 4 5.9 18.9 5.9 21.2 0 33.2-10.6 12-10.6 12-36.8 0-23.4-13.8-37-15.1-14.8-40.9-14.8-7.2 0-9.2 0.9-1.9 0.9-1.9 3.1-0.2 6.7-0.2 29.6z"/>
								<path id="&lt;Compound Path&gt; copy" class="s0" d="m1003 890.4h-40.1v-6.2q1.4-0.2 4.1-0.5 2.6-0.3 3.6-1 1.9-1.2 2.6-3.1 0.7-2 0.7-5v-80.3q0-2.7-0.7-4.8-0.6-2.1-2.6-3.3-1.2-0.8-3.6-1.7-2.4-0.8-4.1-1.1v-6.3h40.1v6.3q-1.5 0.2-3.8 0.6-2.3 0.5-3.9 1.3-2 1-2.6 3.2-0.7 2.2-0.7 5v80.2q0 2.9 0.7 4.9 0.7 2.1 2.6 3.3 1.1 0.7 3.5 1.4 2.5 0.7 4.2 0.9z"/>
								<path id="&lt;Compound Path&gt; copy 2" class="s0" d="m1249.9 805.9h-5.7q-2.1-6.4-7.4-13-5.3-6.6-10.6-7.8-2.2-0.6-6.2-0.7-4-0.1-6.6-0.1h-15.4v43.7h10.9q4.1 0 7.5-1.1 3.3-1 6.1-4 1.7-1.8 3.5-6.4 1.7-4.7 2.2-8.1h5.7v47.3h-5.7q-0.4-3.4-2.2-8.4-1.9-5.1-3.5-7-2.5-2.9-5.8-4-3.4-1.1-7.8-1.1h-10.9v32.7q0 5.1 0.7 8.1 0.7 3 2.7 4.6 1.8 1.5 5.1 2 3.2 0.5 8.8 0.5 2.6 0 6.3-0.1 3.7-0.1 6.4-0.5 3.2-0.4 5.9-1.2 2.7-0.8 4-2.3 3.6-3.9 8.1-11.9 4.5-8.1 5.9-12.1h5.5l-2.1 35.3h-99.3v-6.2q2.1-0.1 5.7-0.6 3.6-0.5 5.1-1.1 2.8-1.3 3.8-3.3 0.9-1.9 0.9-5v-79.9q0-2.9-0.8-4.8-0.8-1.9-3.9-3.4-2-0.9-5.5-1.7-3.5-0.8-5.3-1.1v-6.2h93.9z"/>
							</g>
							<g id="&lt;Group&gt;">
								<g id="&lt;Group&gt;">
									<path id="&lt;Compound Path&gt;" fill-rule="evenodd" class="s0" d="m855.8 1006.1c2.6 2.9 2.7 4.8 0.7 6.6-1.8 1.8-4.1 1.5-6.4-0.9-3.4-3.5-3.3-8.6 0.5-11.7 33.6-18.1 64.5 17.7 82.3 17.9 32.7-1.1 3.9-29.8-1.2-18.7 0.2 0.8-1.2 2.6-2.2 3.2-3.3 1.9-6.4 0.7-9.1-1.3-3-2.3-4-5.8-2.7-9 20.3-20.8 42.3 5.6 40.8 14.5 1.2-0.1 2.5-1.1 5.3-2.1-3.2 27.6-29.2 31-29.2 31 0 0-0.1 3 4.5 6.3-29.1-4.4-28.5-26-46.4-31.8 4.3 8.1-18.7 15.5-16.7 2.1 0.1 0.1 0.4 0.2 0.4 0.4 0.2 2.4 1.2 4 3.9 3.4 12.9-3.3-5.7-23.3-24.5-9.9zm39.6-2.1c7.7 4.9 15.3 10 23.3 14.5 3.7 2.2 8.1 3.7 12.4 4.3 5.7 0.8 11.3-0.4 15-5.7-3.6 2.2-7.5 3.2-11.7 3.1-8.4-0.2-15.7-3.3-22.7-7.6-5.3-3.2-16.2-8.9-16.3-8.6z"/>
								</g>
								<g id="&lt;Group&gt;">
									<path id="&lt;Compound Path&gt;" fill-rule="evenodd" class="s0" d="m500.4 1016c2.7 0.6 3.6-1 3.8-3.4 0-0.2 0.3-0.3 0.5-0.4 2 13.4-21 6-16.8-2.1-17.8 5.8-17.2 27.4-46.3 31.8 4.6-3.3 4.5-6.3 4.5-6.3 0 0-26-3.4-29.2-31 2.8 1 4 2 5.3 2.1-1.5-8.9 20.4-35.3 40.7-14.5 1.4 3.2 0.3 6.7-2.6 9-2.7 2-5.9 3.2-9.1 1.3-1.1-0.6-2.4-2.4-2.2-3.2-5.1-11.1-34 17.6-1.2 18.7 17.8-0.2 48.7-36 82.2-17.9 3.9 3.1 4 8.2 0.6 11.7-2.3 2.4-4.6 2.7-6.4 0.9-2-1.8-1.9-3.7 0.6-6.6-18.8-13.4-37.3 6.6-24.4 9.9zm-31.4-3.4c-7 4.3-14.3 7.4-22.7 7.6-4.3 0.1-8.1-0.9-11.7-3.1 3.7 5.3 9.2 6.5 15 5.7 4.3-0.6 8.6-2.1 12.4-4.3 8-4.5 15.6-9.6 23.3-14.5-0.2-0.3-11.1 5.4-16.3 8.6z"/>
								</g>
								<g id="&lt;Group&gt;">
									<path id="&lt;Path&gt;" class="s0" d="m475 1030.1c79.5 13.7 129.7-45 168.4-44.5 15.1-0.2 28.8 3 39.8 14.8-41.8-26.8-138.8 71.8-208.2 29.7z"/>
								</g>
								<g id="&lt;Group&gt;">
									<path id="&lt;Path&gt;" class="s0" d="m909.3 1030.1c-79.5 13.7-129.6-45-168.3-44.5-15.1-0.2-28.9 3-39.9 14.8 41.9-26.8 138.8 71.8 208.2 29.7z"/>
								</g>
								<g id="&lt;Group&gt;">
									<path id="&lt;Path&gt;" class="s0" d="m709.7 1008.6c-9.1 6-13.3 14.6-15.9 24.6-0.4-0.3-1.1-0.6-1.2-0.9-2.3-9.7-6.9-17.8-15.5-23.7 9.3-1.1 13.4-7.5 16.3-15.5 2.8 8 6.9 14.3 16.3 15.5z"/>
								</g>
							</g>
							<g id="&lt;Group&gt;">
								<g id="&lt;Group&gt;">
									<path id="&lt;Path&gt;" class="s0" d="m1381 932.8v6.7h-1379.1v-6.7z"/>
								</g>
								<g id="&lt;Group&gt;">
									<path id="&lt;Path&gt;" class="s0" d="m1381 949.3v6.8h-1379.1v-6.8z"/>
								</g>
							</g>
							<g id="&lt;Group&gt;">
								<g id="&lt;Group&gt;">
									<g id="&lt;Group&gt;">
										<g id="&lt;Group&gt;">
											<path id="&lt;Path&gt;" class="s0" d="m590.1 629.9c-1.3-0.3-2.7-0.6-4-0.9-2.3 0.8-4.6 1.4-6.8 1.9q-2.1 0.2-4.2 0.5c-13.7 1-26.1-5.7-32.8-16.7-12-17.6 1.4-30 7-27.8 11.1 7.1-0.5 14.3-7 8.5 3.7 9.3 15.7 5.5 17.4 1.1 1.9-5.1 0.7-9.8-2.9-13.6-3.7-4.1-11.3-4.8-16.6-2.1-7 3.5-11 11.9-9.6 20.8 1.8 11.4 8.3 19.9 17.6 26.1 4.7 3.2 9.4 5 14.3 5.9q-0.6 0.1-1.1 0.2c-149.4 51.7-132.2-34-92.9-33.9 17.8 4.7 21.6 20.4 16.4 37.8 8.6-3.7 16.2-14.1 13.4-30.9-2.8-17.4-24.3-32.5-42.3-28.7-38.7 5-65.9 66.9-2.9 93.4-35.7 4.7-62.6-2.5-82.9-26.7-22-42.9-52.2-76.7-102.9-85.7-36.2-6.5-70.7-1-100.8 21.9-23.3 17.8-32.9 46.6-24.4 71 6.4 18.3 26 33.6 44.1 32.6 17.2-1 30.6-9.3 37.6-25.8 5.9-14.1-13.8-50.3-43.6-36.7 28.5 1 39.5 44.3-2.9 35.8-17.9-7.5-21.6-66.8 46.5-81.4 49-13.3 103.3 7.5 131.7 57.6q-2.8-1.6-5.7-3.2c-20.2-12-39.3-27.3-61-35.2-19.7-7.1-41.3 2.6-49.2 21.8-5.9 14.5-5.8 35-0.1 49.6 7.1 18.6 27.1 27 46.8 21.2 10-2.9 27.2-26.1 15.5-48.3-15.5 50.8-51.2 28.4-48.2 1 1.3-17.8 15.2-29.4 31.1-25.1 34.9 3 81.6 115.3 242.4 41.2 42.8-17 85.9-27.7 131.7-10.8-18.2-12.5-42.7-17.6-68.7-16.4z"/>
										</g>
										<g id="&lt;Group&gt;">
											<path id="&lt;Path&gt;" class="s0" d="m790.6 629.9c1.3-0.3 2.6-0.6 4-0.9 2.2 0.8 4.5 1.4 6.8 1.9q2.1 0.2 4.2 0.5c13.7 1 26.1-5.7 32.8-16.7 11.9-17.6-1.4-30-7-27.8-11.1 7.1 0.5 14.3 7 8.5-3.7 9.3-15.8 5.5-17.4 1.1-2-5.1-0.8-9.8 2.8-13.6 3.8-4.1 11.4-4.8 16.7-2.1 7 3.5 11 11.9 9.6 20.8-1.8 11.4-8.3 19.9-17.6 26.1-4.7 3.2-9.4 5-14.3 5.9q0.5 0.1 1 0.2c149.4 51.7 132.3-34 93-33.9-17.9 4.7-21.7 20.4-16.5 37.8-8.5-3.7-16.1-14.1-13.3-30.9 2.8-17.4 24.3-32.5 42.2-28.7 38.8 5 65.9 66.9 3 93.4 35.7 4.7 62.6-2.5 82.8-26.7 22.1-42.9 52.3-76.7 103-85.7 36.2-6.5 70.7-1 100.8 21.9 23.3 17.8 32.9 46.6 24.4 71-6.5 18.3-26 33.6-44.1 32.6-17.2-1-30.6-9.3-37.6-25.8-5.9-14.1 13.8-50.3 43.6-36.7-28.5 1-39.5 44.3 2.8 35.8 18-7.5 21.7-66.8-46.4-81.4-49-13.3-103.3 7.5-131.7 57.6q2.8-1.6 5.6-3.2c20.3-12 39.3-27.3 61.1-35.2 19.7-7.1 41.3 2.6 49.2 21.8 5.9 14.5 5.7 35 0.1 49.6-7.1 18.6-27.1 27-46.9 21.2-9.9-2.9-27.1-26.1-15.4-48.3 15.5 50.8 51.2 28.4 48.2 1-1.3-17.8-15.3-29.4-31.1-25.1-35 3-81.6 115.3-242.4 41.2-42.8-17-85.9-27.7-131.7-10.8 18.2-12.5 42.7-17.6 68.7-16.4z"/>
										</g>
										<g id="&lt;Group&gt;">
											<path id="&lt;Path&gt;" class="s0" d="m318.8 595.4c-21.8-17.4-75.1-34.9-115.8-1.6 41.2-14 72.7-17 115.8 1.6z"/>
										</g>
									</g>
								</g>
								<g id="&lt;Group&gt;">
									<path id="&lt;Path&gt;" class="s0" d="m472 692.8c79.5 13.7 129.6-45.1 168.3-44.6 15.1-0.2 28.8 3 39.8 14.9-41.8-26.9-138.7 71.7-208.1 29.7z"/>
								</g>
								<g id="&lt;Group&gt;">
									<path id="&lt;Path&gt;" class="s0" d="m906.2 692.8c-79.5 13.7-129.6-45.1-168.3-44.6-15.1-0.2-28.8 3-39.8 14.9 41.8-26.9 138.7 71.7 208.1 29.7z"/>
								</g>
								<g id="&lt;Group&gt;">
									<path id="&lt;Path&gt;" class="s0" d="m706.7 671.2c-9.1 6-13.3 14.6-16 24.6-0.4-0.3-1.1-0.5-1.2-0.9-2.3-9.6-6.9-17.8-15.5-23.7 9.3-1.1 13.4-7.5 16.3-15.4 2.8 8 6.9 14.3 16.4 15.4z"/>
								</g>
								<g id="&lt;Group&gt;">
									<path id="&lt;Compound Path&gt;" fill-rule="evenodd" class="s0" d="m609.6 697.2c-2.6-0.5-3.4 1-3.6 3.2 0 0.1-0.3 0.2-0.4 0.3-1.9-12.4 19.5-5.6 15.5 1.9 16.7-5.3 16.1-25.4 43.1-29.5-4.2 3.1-4.2 5.9-4.2 5.9 0 0 24.2 3.1 27.1 28.8-2.6-0.9-3.7-1.9-4.8-1.9 1.3 8.2-19.1 32.8-37.9 13.4-1.3-3-0.3-6.2 2.4-8.3 2.5-1.9 5.5-3 8.5-1.3 1 0.6 2.3 2.3 2 3 4.8 10.3 31.6-16.3 1.2-17.3-16.6 0.1-45.3 33.4-76.5 16.6-3.5-2.9-3.7-7.6-0.5-10.9 2.1-2.2 4.3-2.5 6-0.9 1.8 1.7 1.7 3.5-0.6 6.2 17.4 12.5 34.7-6.2 22.7-9.2zm29.1 3.2c6.5-4.1 13.3-6.9 21.1-7.1 4-0.1 7.6 0.9 10.9 2.9-3.4-4.9-8.6-6.1-13.9-5.4-4 0.6-8 2.1-11.5 4-7.4 4.2-14.5 9-21.7 13.6 0.2 0.2 10.3-5 15.1-8z"/>
								</g>
								<g id="&lt;Group&gt;">
									<path id="&lt;Compound Path&gt;" fill-rule="evenodd" class="s0" d="m793.8 706.4c-2.3-2.7-2.4-4.5-0.6-6.2 1.7-1.6 3.9-1.3 6 0.9 3.1 3.3 3 8-0.5 10.9-31.2 16.8-60-16.5-76.5-16.6-30.4 1-3.6 27.6 1.2 17.3-0.3-0.7 1-2.4 2-3 3-1.7 6-0.6 8.4 1.3 2.8 2.1 3.7 5.3 2.5 8.3-18.9 19.4-39.2-5.2-37.9-13.4-1.1 0-2.3 1-4.9 1.9 3-25.7 27.1-28.8 27.1-28.8 0 0 0.1-2.8-4.1-5.9 27 4.1 26.4 24.2 43 29.5-3.9-7.5 17.5-14.3 15.6-1.9-0.1-0.1-0.4-0.2-0.4-0.3-0.2-2.2-1.1-3.7-3.6-3.2-12 3 5.3 21.7 22.7 9.2zm-36.7 2c-7.2-4.6-14.3-9.4-21.7-13.6-3.5-1.9-7.5-3.4-11.5-4-5.3-0.7-10.5 0.5-13.9 5.4 3.3-2 6.9-3 10.9-2.9 7.7 0.2 14.6 3 21 7.1 4.9 3 15 8.2 15.2 8z"/>
								</g>
								<g id="&lt;Group&gt;">
									<g id="&lt;Group&gt;">
										<g id="&lt;Group&gt;">
											<path id="&lt;Compound Path&gt;" fill-rule="evenodd" class="s0" d="m700.1 613.4c-2.7 0-5.4-0.6-7.7-1.9-8.7-3.8-51.8-23.6-94-57-26.2-20.8-47.1-42.9-62.2-65.7-19.3-29.3-29.1-59.9-29.1-90.9v-221.6l194.9-47.3 191.2 47.4v221.5c0 31-9.7 61.6-29 90.9-15.1 22.8-36 44.9-62.2 65.7-44.6 35.2-90.1 55.3-95.2 57.5l-0.2 0.1q-3.1 1.3-6.5 1.3zm-160.2-411.3v195.8c0 45.4 26.5 89.4 78.8 130.8 33.5 26.6 67.4 43.7 81.5 50.3 14-6.6 47.9-23.7 81.4-50.3 52.3-41.4 78.8-85.4 78.8-130.8v-195.9l-158.5-39.2z"/>
										</g>
									</g>
									<g id="&lt;Group&gt;">
										<path id="&lt;Compound Path&gt;" fill-rule="evenodd" class="s0" d="m791.1 111.5c2.7 3.1 2.8 5.2 0.7 7.2-2 1.9-4.5 1.5-7-1.1-3.6-3.8-3.5-9.2 0.6-12.6 36.4-19.6 69.9 19.2 89.2 19.4 35.4-1.2 4.2-32.3-1.4-20.3 0.3 0.8-1.2 2.9-2.3 3.5-3.5 2-7 0.8-9.9-1.4-3.2-2.5-4.3-6.3-2.8-9.8 21.9-22.5 45.7 6.1 44.1 15.7 1.4-0.1 2.7-1.1 5.7-2.2-3.4 29.9-31.6 33.6-31.6 33.6 0 0-0.1 3.2 4.9 6.8-31.5-4.8-30.9-28.2-50.2-34.4 4.6 8.7-20.4 16.7-18.2 2.2 0.2 0.1 0.5 0.2 0.5 0.4 0.2 2.6 1.2 4.3 4.2 3.7 14-3.5-6.1-25.2-26.5-10.7zm42.8-2.3c8.4 5.3 16.7 10.9 25.3 15.8 4.1 2.3 8.8 4 13.4 4.6 6.2 0.9 12.3-0.5 16.3-6.2-3.9 2.3-8.1 3.4-12.7 3.3-9.1-0.2-17.1-3.5-24.6-8.2-5.7-3.5-17.5-9.6-17.7-9.3z"/>
									</g>
									<g id="&lt;Group&gt;">
										<path id="&lt;Compound Path&gt;" fill-rule="evenodd" class="s0" d="m593.1 122.2c2.9 0.6 4-1.1 4.2-3.7 0-0.2 0.3-0.3 0.5-0.4 2.1 14.5-22.8 6.5-18.2-2.2-19.4 6.2-18.7 29.6-50.2 34.4 5-3.6 4.9-6.8 4.9-6.8 0 0-28.2-3.7-31.6-33.6 3 1.1 4.3 2.1 5.7 2.2-1.6-9.6 22.1-38.2 44.1-15.7 1.5 3.5 0.4 7.3-2.9 9.8-2.9 2.2-6.3 3.4-9.8 1.4-1.1-0.6-2.6-2.7-2.4-3.5-5.5-12-36.8 19.1-1.3 20.3 19.3-0.2 52.8-39 89.1-19.4 4.2 3.4 4.3 8.8 0.6 12.6-2.4 2.6-5 3-7 1.1-2.1-2-1.9-4.1 0.8-7.2-20.4-14.5-40.5 7.2-26.5 10.7zm-34-3.7c-7.6 4.7-15.5 8-24.6 8.2-4.6 0.1-8.8-1-12.7-3.3 4 5.7 10 7.1 16.3 6.2 4.6-0.6 9.3-2.3 13.4-4.6 8.6-4.9 16.8-10.5 25.2-15.8-0.1-0.3-11.9 5.8-17.6 9.3z"/>
									</g>
									<g id="&lt;Group&gt;">
										<path id="&lt;Path&gt;" class="s0" d="m788.4 60c0 0-20.3-29.4-32.2-5.6 0 0 22.9 7.5 13.5 25.4-5.1 14.9-20.6 9.2-20.9-9.4 0 0-5.5 21.5-18.2 12.4-12.6-9.1-13.4-44.4 12.4-37.7 0 0-16.4-16.5-26.9 3.3 0 0 2.7-30.1-12.1-50.5-14.8 20.4-12.1 50.5-12.1 50.5-10.5-19.8-26.9-3.3-26.9-3.3 25.8-6.7 25 28.6 12.4 37.7-12.7 9.1-18.2-12.4-18.2-12.4-0.3 18.6-15.8 24.3-20.8 9.4-9.5-17.9 13.5-25.4 13.5-25.4-12-23.8-32.3 5.6-32.3 5.6 0 0-10.8-18.7-32.3-16 3.9 4.7 48.3 69.2 48.3 69.2 17.7-5.5 68.4-12.7 68.4-12.7 0 0 50.3 7.6 69.4 12.7 0 0 43.4-64.5 47.3-69.2-21.4-2.7-32.3 16-32.3 16z"/>
									</g>
									<g id="&lt;Group&gt;">
										<path id="&lt;Compound Path&gt;" fill-rule="evenodd" class="s0" d="m810.7 457.3q-7.6 1.9-15.7 1.9-12.2 0-22.5-5-10.3-5-19-12.8-8.7-7.8-16.2-17.6-7.5-9.8-14-19.5-6.6-9.7-14.9-20.3-8.2-10.6-16.3-17.4-6.3-5.3-14.4-6.4-8.1-1.1-16.2-1.1-3.4 0-6.8 0-3.5 0-6.9 0.3v60.2q0 12.8 7.6 21.6 7.7 8.9 20.1 10.2v2.5q-9.6-1-19.3-1.6-9.7-0.6-19.3-0.6-9.7 0-19 0.8-9.4 0.7-19.1 2-0.9 0.3-1.2-0.8-0.3-1.1 0.6-1.7 9.1-4.1 15.1-12.6 6.1-8.6 6.1-18.6v-169q0-10-7.3-17.5-7.3-7.4-17-9.9-0.9-0.3-0.8-1.3 0.2-0.9 1.1-0.9h5.9q4.7 0 9.4 0.1 4.7 0.2 9 0.5 9.4 0.9 18.7 0.9 10 0 20.3-0.9 5.3-0.3 10.1-0.5 4.9-0.1 10.2-0.1 13.1 0 25.5 3.1 12.5 3.1 22.3 9.8 9.9 6.7 15.8 17.3 5.9 10.6 5.9 25.9 0 10-3.1 19.8-3.1 9.8-8.3 18.9-5.1 9-11.8 17-6.7 7.9-13.6 14.5 4.4 5 10.3 13.1 5.9 8.1 12.2 16.5 9.3 12.8 19.6 26.2 10.3 13.4 21.7 24 11.4 10.6 23.7 16.7 12.3 6.1 25.7 4.5l0.6 2.5q-7.1 3.4-14.8 5.3zm-94.8-185.2q-3.2-11.2-9.6-20.3-6.4-9-15.8-14.6-9.3-5.7-21.8-5.7-5.3 0-10.5 0.8-5.1 0.8-10.1 2.7v106q7.2 1.2 14.5 1.7 7.3 0.5 14.2 0.5 23.7 0 33-13.1 9.4-13.1 9.4-35.6 0-11.2-3.3-22.4z"/>
									</g>
								</g>
								<g id="&lt;Group&gt;">
									<path id="&lt;Path&gt;" class="s0" d="m930.3 513.9c-93.1 17.9-135 95.4-178.7 110.2-17 6.1-33.3 8.4-48.6 1.1 53.8 9.8 138.5-125.2 227.3-111.3z"/>
								</g>
								<g id="&lt;Group&gt;">
									<path id="&lt;Path&gt;" class="s0" d="m459.2 513.9c93 17.9 134.9 95.4 178.6 110.2 17 6.1 33.3 8.4 48.6 1.1-53.8 9.8-138.5-125.2-227.2-111.3z"/>
								</g>
							</g>
							<g id="&lt;Group&gt;">
								<g id="&lt;Group&gt;">
									<g id="&lt;Group&gt;">
										<path id="&lt;Path&gt;" class="s0" d="m1378.7 743.4h-666.7v-10.7h666.7z"/>
									</g>
								</g>
								<g id="&lt;Group&gt;">
									<g id="&lt;Group&gt;">
										<path id="&lt;Path&gt;" class="s0" d="m668.7 743.4h-666.8v-10.7h666.8z"/>
									</g>
								</g>
							</g>
							<g id="&lt;Group&gt;">
								<g id="&lt;Group&gt;">
									<path id="&lt;Path&gt;" class="s0" d="m871.4 377c-2.3 1.6-5.3 4.2-6.1 7.7q-0.8 4 2.4 8.3c1.2-1.4 3.4-3.2 7.2-4.3-2.9-3.3-3.7-7.9-3.5-11.7z"/>
								</g>
								<g id="&lt;Group&gt;">
									<path id="&lt;Path&gt;" class="s0" d="m878.6 353.4q-0.6 0-1.1 0.1c-0.2 0-13.8 1.9-15.6 10.5 3.5-0.1 10.3 0.4 13.1 6.1 1.3-0.9 2.9-1.4 4.5-1.7 0.9-1 3.1-4 2.9-7.7-0.1-2.6-1.3-5-3.8-7.3z"/>
								</g>
								<g id="&lt;Group&gt;">
									<path id="&lt;Path&gt;" class="s0" d="m889.7 356.2q-2.7-2.3-6.8-2.8 2.5 3.4 2.7 7.3c0.1 3.1-1 5.7-2.1 7.6 0.2 0-0.5 0.8-0.5 0.8 1.1-0.4 3.2-0.7 4.4-0.8 0.4-0.8 0.9-3-0.6-6.9 0 0 4.3 5.6 3.8 7.3 1.8 0.5 3.1 1.5 3.8 2.9-0.4-1.3-0.7-3-0.7-5.3 0-4.2-1.4-7.8-4-10.1z"/>
								</g>
								<g id="&lt;Group&gt;">
									<path id="&lt;Path&gt;" class="s0" d="m882.3 301.2c-3.2-0.8-9.1-1.5-12.2 0.8q-1.7 1.2-2.1 3.5c2.7 0.3 7.8 1.2 8.7 4.9 0.1 0.4 1.1 0.6 1.9 0.5 2.4-0.2 5.7-2 5.9-5v-0.1c0.1-0.8 0.2-2.8-0.3-4.2z"/>
								</g>
								<g id="&lt;Group&gt;">
									<path id="&lt;Path&gt;" class="s0" d="m875.4 319.4l-0.4-0.1c0 0-5.4-1.5-9.1 1q-2.4 1.6-3.4 5c0.8-0.1 1.6-0.2 2.5-0.2 2.2 0 4.6 0.6 6.1 2.5 0.5 0.8 2.7 0.9 4.6-0.4 1.5-1 3.5-3.3 0.9-7.6z"/>
								</g>
								<g id="&lt;Group&gt;">
									<path id="&lt;Path&gt;" class="s0" d="m880.6 292.3q0.5 0.4 1 0.8 3.3 3 4 5.4l3.8 0.1q2.3-0.3 4.2-0.1c-0.8-0.8-1.9-1.8-3.2-2.8q-4.7-3.3-9.8-3.4z"/>
								</g>
								<g id="&lt;Group&gt;">
									<path id="&lt;Compound Path&gt;" fill-rule="evenodd" class="s0" d="m1133.5 359c-5.6 11.5 1.7 27.7 8.7 43.4 4.9 11 10 22.4 10.8 32.6 1 12.4-4.5 21.8-16.3 27.7l-0.2 0.1q-7.5 3.3-14.4 3.3-7.3 0-13.8-3.8c-7.3-4.2-12.6-11.6-16.6-19.7-1.5 7.8-4.1 16.1-7.8 24.9 0.4 2 2 10.1 4.8 18.6 4.2 12.5 9.1 20.2 14.2 22.2 5 1.9 8 4.4 9.2 7.4 1.7 4-0.1 8.2-1.6 11.6q-0.5 1-0.8 1.9c-2.4 5.9-9.2 33.1-8.1 41.6 0.1 0.5 0.5 4.1-1.9 7.4-2 2.7-5.3 4.4-9.9 5.1 0 0-6-3.5-7.8 1.1-4.1-1.4-4.1-5.8-4.1-7.4-5.9-0.7-4 7.3-4 7.3-0.3-0.1-6.1-2.2-6.9-7.5-5.3 1.4-5 8.6-5 8.6 0 0-4.8-3.5-6.4-6.6-3.9 1.7-1.5 6.8-1.5 6.8 0 0-9.2-6.5-6.8-14.7 0.3-2.9 1.7-12.1 17.7-12.9 11.5-0.3 11.9-0.6 11.9-4.1 0-3.2 0.7-14.7 3.2-19.2-1.6-2.7-7-18-7.4-18.5-4.8 1.1-29.3-16.5-37.1-31.1-4.4-8.1-6.1-17.8-7.5-26.1-0.8-4.5 0.1-11.5 0.2-16-4.3 1-11 0.9-14.4 0.7 0 2.6-1.2 7.3-5.5 16.8-3.7 7.1 2.6 16.8 3.7 18.1 0.8 1.1 2.1 2.7 4.1 5.9 2.2 3.8 2.2 7.9-0.1 12-1.3 2.2-2.9 3.9-3.6 4.6-1.1 5-29.2 1.3-28.8 1-3.2-1-6.2-2.1-8.2-2.9-0.7-0.3-1.3-0.5-1.8-0.7-3.4-1.2-28-0.8-36.1-0.7-8.1 0-7.6-2.5-8.6-6.6q-0.1 0-0.1 0c-5.7-4.9-8.2 1.5-8.2 1.5-3.9-6.1 0.2-14.2 0.7-16-1.7 0.6-4 1.7-5.8 2.9l-2 1.2-0.4-2.4c-0.5-3.8 0.2-7.1 2.2-9.6 1.2-1.5 2.8-2.5 4.2-3.2-2.1 0.4-4 1.6-4 1.6l-2.8 1.8 0.4-3.3c0.7-4.6 2.6-7.7 5.6-9.3 4.8-2.5 11-0.2 13.1 0.7 2.4-1 5.7 0.1 9.7 3.2 3 9.2 20 13.6 23.3 14.9 3.6 1.4 6.6 1.6 7.6 1.4 0.7-0.9 9.9-4.5 11-4.8 0.1-1.8-0.1-4.8-1.5-5.8-3.2-2.2-13.2-14.6-15.1-22.4-0.3-1.2-0.4-2-0.4-2.6-2.1-1.5-5.8-5-11-10.5-9.5-10.2-14.5-16.9-13.6-22.9 0.6-3.9 3.5-7.2 9.9-11 10.5-6.3 34.6-0.6 47.4 3-14.4-11.2-19.1-15.1-24.2-26.2-1.8 0.5-4.1 1.1-6.9 1.6-6.6 1.2-14.2 2-18 2.1-4.2 0-6.1 2.2-8.5 5-1.1 1.4-2.4 2.9-4 4.2-1.6 1.2-3.8 1.7-6.1 1.7-5.5 0-11.8-2.4-12.7-2.8 0 0-1.4 0-2.5 0.4-1.8 0.7-3.6 1-5.3 1-3.8 0-7.2-1.6-9.2-3.6-1.5-1.5-2-3.1-1.5-4.3 0.3-0.8 0.2-1.7 0.1-2.4q-2.5-0.3-4.6-1.4c-7 0.9-8.8 4.9-8.8 4.9l-0.9 2.4-1.7-1.9c-3.8-4.3-5.3-8.5-4.4-12.7 1.4-6.4 8.2-10.3 10.2-11.3 0.1-0.3-0.1-0.6-0.1-0.6-2.2-6.2-11.9-4.9-12-4.9l-1.8 0.3v-1.9c0.1-5.3 3.4-9.7 9.5-12.6 4.4-2 8.8-2.6 9-2.6 5.2-0.7 12.8 0.9 12.8 0.9 5.2-0.4 8.7 0.4 10.9 2.6 2.3 2.3 3.2 6.1 2.7 11.9-0.6 8.3 3.3 9.4 3.7 9.5h0.2l0.1 0.1c3.2 1.4 8.7-0.9 14.6-4.6-7.5-4.4-14.8-14.2-16.9-17.2-1.5-2.1-8.9-5.7-13.2-7.5l0.3-0.7q-0.3 0-0.6 0.1c-2.2 0.4-4.3 0.7-6.2 0.7-1.9 0-3.7-0.3-5-1.4-1.5-1-2.4-2.7-2.8-5.1q-0.2 0-0.5 0c-2.6-0.4-5-1.6-6.9-3.4-2.4-2.3-3.7-5.3-3.4-7.8-2-0.5-4.8 0-5.8 0.4l-2.4 0.7 0.3-2.4c0.5-4.4 2.3-7.6 5.2-9.6 3.7-2.4 8.2-2 10.4-1.6-0.5-2-1.1-4.7-1.3-5.6-1.2-1.2-4.7-1.8-7-1.8l-1.6-0.1v-1.5c0.1-3.4 1.2-5.9 3.5-7.6 3.9-2.8 10-2.3 13.5-1.6-0.4-0.6-1.1-1.4-2.2-2.4-1.9-1.7-3.9-3-3.9-3l-3.1-2.1 3.6-0.7c5.6-1.3 11.2 0 16.2 3.6 3.7 2.7 5.8 5.8 5.9 5.9 0 0 1.1 1.4 1.7 2.1 3.5 3.3 3.2 8.8 2.9 12.8-0.1 1.4-0.2 3.2 0 3.7 2.1 2.4 3.6 6.4 4 7.7 2.6 2.4 9.1 7.7 12 8.5 3.6 1.1 10.2 4.8 12.4 6.2 0.1-4.5 0.7-8.6 1.9-12.3 1.3-4.2 3.5-7.9 6.4-11.1 0.3-5.6 2.3-10.5 5.8-14.6 3-3.6 7.3-6.6 12.8-9 9.7-4.2 46.2-15.4 49.8-27.5-2.5 0.6-6 1.4-8.7-0.9-3.9 7.8-22.7 14.4-21.1 20.3-2.3-0.1-16.2-2.4-13.7-11.9 2.9 6.4 33.7-4.4 11.9-24.3-3.8-1.8-15.2 7.2-15.2 7.2-2.3 0-0.3 6.4-0.3 6.4-4.9-1.6-9.9-10.7-10.2-13-0.3-1.8 0.1-3.4 0.3-4q-0.5-1.2-0.8-2c-1.2-2.8-1.5-3.1 0.1-7 0 0 7.3-1 17-6.2 6.3-7.8 23.9-15.3 25-16 1.9-1.1-1.6-6.3 14.8-8.8 45-3.4 61.7 27.6 61.8 35 0 0-1.2-1.5-6.1-1.5 10.6 11.4 11 25.5 11 31.3-3.4-3.4-5.9-5.1-9.4-6.1 16.6 27.3-4.1 59.4-4.1 59.4-1.9-8.1-0.2-22-5.9-28.7 0 0-6 37.5-1.3 43.7-3.1-0.3-10.6 1.8-20.2-10.3-0.8 12.8 18.4 21.7 18.4 21.7-1.4 14.7-16.3 27.4-12.7 32.9 7.5 12.2 33.3 29.2 36.7 52.2 2.8 12.1 8.7 29.4 19.9 35.9 5.8 3.3 12.3 3.4 20 0.1 17.7-9 12-24.3 1.2-48.5-7.9-17.6-16-35.8-8.6-51.1 3.8-7.9 11.5-14 23.1-18.5q0.1 0 0.1-0.1c5.9-9.3 22-25.3 56.7-8.6 0 0-7 6.3-23.5 4.9 0 0 13.1 7.2 28.2 3.5-1.9 1.4-36.5 23.4-59.7 9.2-1.6-0.9-14.1 8-16.8 13.6zm-115.1-153.3c-2.2 0.5-18.2 8.2-18.2 8.2 7.8-2.1 10.5 0.7 12.9-0.2 3.3-1.3 1.7-3.9 5.3-8zm-65 122.2c0 0.7 0.2 1.7 0.4 2.9 1.2-42.7 108.4-40.7 91.7-96.1-0.3 1.8-0.6 4.1-1.5 5.8 1 46.3-93.3 43.2-90.6 87.4zm12.2-34.7c12.3-11.9 68-23.1 76.8-50.9-2.1 4.8-7.7 5.5-13.5 6.3-0.5 18.2-62.9 29.7-63.3 44.6zm93.7 39.6h0.4c-19.7-3.9-30.9-24.3-32.2-28.4-15.3 10.9-44.5-0.2-73.9 36.2 70.1-48.1 87.1 2.1 105.7-7.8z"/>
								</g>
								<g id="&lt;Group&gt;">
									<path id="&lt;Compound Path&gt;" fill-rule="evenodd" class="s0" d="m247.5 345.4c-23.3 14.2-57.9-7.8-59.8-9.2 15.1 3.7 28.3-3.5 28.3-3.5-16.6 1.4-23.6-4.9-23.6-4.9 34.7-16.7 50.8-0.7 56.8 8.6q0 0.1 0 0.1c11.7 4.5 19.3 10.6 23.2 18.5 7.4 15.3-0.7 33.5-8.6 51.1-10.8 24.2-16.5 39.5 1.2 48.5 7.6 3.3 14.2 3.2 19.9-0.1 11.2-6.5 17.1-23.8 20-35.9 3.3-23 29.2-40 36.6-52.2 3.6-5.5-11.2-18.2-12.7-32.9 0 0 19.3-8.9 18.4-21.7-9.6 12.1-17 10-20.2 10.3 4.8-6.2-1.2-43.7-1.2-43.7-5.8 6.7-4 20.6-6 28.7 0 0-20.6-32.1-4.1-59.4-3.5 1-5.9 2.7-9.3 6.1 0-5.8 0.3-19.9 10.9-31.3-4.8 0-6.1 1.5-6.1 1.5 0.1-7.4 16.9-38.4 61.9-35 16.4 2.5 12.8 7.7 14.8 8.8 1 0.6 18.6 8.2 24.9 16 9.7 5.2 17 6.2 17 6.2 1.6 3.9 1.4 4.2 0.2 7q-0.4 0.8-0.8 2c0.2 0.6 0.5 2.2 0.2 4-0.3 2.3-5.3 11.4-10.2 13 0 0 2.1-6.4-0.2-6.4 0 0-11.4-9-15.2-7.2-21.8 19.9 9 30.7 11.9 24.3 2.4 9.5-11.4 11.8-13.7 11.9 1.5-5.9-17.3-12.5-21.1-20.3-2.8 2.3-6.2 1.5-8.8 0.9 3.7 12.1 40.2 23.3 49.9 27.5 5.4 2.4 9.7 5.4 12.8 9 3.5 4.1 5.4 9 5.8 14.6 2.9 3.2 5 6.9 6.4 11.1q1.8 5.5 1.8 12.3c2.3-1.4 8.9-5.1 12.4-6.2 3-0.8 9.4-6.1 12-8.5 0.5-1.3 1.9-5.3 4.1-7.7 0.2-0.5 0.1-2.3 0-3.7-0.3-4-0.7-9.5 2.8-12.8 0.7-0.7 1.8-2.1 1.8-2.1 0.1-0.1 2.1-3.2 5.8-5.9 5-3.6 10.6-4.9 16.2-3.6l3.6 0.7-3.1 2.1c0 0-2 1.3-3.8 3-1.1 1-1.8 1.8-2.3 2.4 3.6-0.7 9.6-1.2 13.5 1.6 2.3 1.7 3.5 4.2 3.6 7.6v1.5l-1.6 0.1c-2.4 0-5.9 0.6-7 1.8-0.2 0.9-0.9 3.6-1.4 5.6 2.2-0.4 6.8-0.8 10.5 1.6 2.9 2 4.6 5.2 5.1 9.6l0.3 2.4-2.3-0.7c-1.1-0.4-3.8-0.9-5.8-0.4 0.2 2.5-1.1 5.5-3.5 7.8-1.9 1.8-4.2 3-6.9 3.4q-0.2 0-0.5 0c-0.3 2.4-1.2 4.1-2.7 5.1-1.4 1.1-3.1 1.4-5 1.4-1.9 0-4-0.3-6.2-0.7q-0.3-0.1-0.6-0.1l0.3 0.7c-4.3 1.8-11.7 5.4-13.3 7.5-2.1 3-9.3 12.8-16.8 17.2 5.9 3.7 11.4 6 14.5 4.6l0.2-0.1h0.2c0.3-0.1 4.2-1.2 3.6-9.5-0.4-5.8 0.4-9.6 2.7-11.9 2.3-2.2 5.7-3 11-2.6 0 0 7.6-1.6 12.8-0.9 0.2 0 4.5 0.6 8.9 2.6 6.2 2.9 9.4 7.3 9.5 12.6l0.1 1.9-1.9-0.3c-0.1 0-9.7-1.3-12 4.9 0 0-0.2 0.3 0 0.6 2 1 8.8 4.9 10.2 11.3 0.9 4.2-0.6 8.4-4.4 12.7l-1.7 1.9-1-2.4c0 0-1.7-4-8.8-4.9q-2 1.1-4.6 1.4c-0.1 0.7-0.1 1.6 0.2 2.4 0.5 1.2-0.1 2.8-1.5 4.3-2.1 2-5.4 3.6-9.2 3.6-1.7 0-3.6-0.3-5.4-1-1-0.4-2.4-0.4-2.4-0.4-1 0.4-7.2 2.8-12.7 2.8-2.3 0-4.6-0.5-6.1-1.7-1.7-1.3-2.9-2.8-4.1-4.2-2.3-2.8-4.2-5-8.5-5-3.7-0.1-11.3-0.9-18-2.1-2.8-0.5-5-1.1-6.8-1.6-5.2 11.1-9.8 15-24.3 26.2 12.8-3.6 37-9.3 47.5-3 6.3 3.8 9.3 7.1 9.9 11 0.8 6-4.2 12.7-13.7 22.9-5.1 5.5-8.8 9-11 10.5 0 0.6-0.1 1.4-0.4 2.6-1.9 7.8-11.9 20.2-15 22.4-1.5 1-1.6 4-1.5 5.8 1 0.3 10.3 3.9 10.9 4.8 1 0.2 4.1 0 7.7-1.4 3.3-1.3 20.2-5.7 23.2-14.9 4.1-3.1 7.3-4.2 9.7-3.2 2.1-0.9 8.3-3.2 13.1-0.7 3.1 1.6 5 4.7 5.6 9.3l0.5 3.3-2.9-1.8c0 0-1.9-1.2-4-1.6 1.5 0.7 3 1.7 4.2 3.2 2.1 2.5 2.8 5.8 2.2 9.6l-0.3 2.4-2-1.2c-1.9-1.2-4.1-2.3-5.8-2.9 0.4 1.8 4.6 9.9 0.7 16 0 0-2.6-6.4-8.2-1.5q-0.1 0-0.1 0c-1.1 4.1-0.6 6.6-8.7 6.6-8-0.1-32.6-0.5-36.1 0.7-0.4 0.2-1 0.4-1.7 0.7-2.1 0.8-5 1.9-8.2 2.9 0.4 0.3-27.7 4-28.8-1-0.8-0.7-2.4-2.4-3.6-4.6-2.3-4.1-2.4-8.2-0.1-12 1.9-3.2 3.2-4.8 4.1-5.9 1-1.3 7.4-11 3.6-18.1-4.3-9.5-5.4-14.2-5.5-16.8-3.3 0.2-10 0.3-14.3-0.7 0.1 4.5 1 11.5 0.2 16-1.4 8.3-3.1 18-7.5 26.1-7.9 14.6-32.4 32.2-37.2 31.1-0.4 0.5-5.7 15.8-7.3 18.5 2.4 4.5 3.2 16 3.2 19.2 0 3.5 0.4 3.8 11.8 4.1 16.1 0.8 17.5 10 17.8 12.9 2.3 8.2-6.8 14.7-6.8 14.7 0 0 2.4-5.1-1.6-6.8-1.5 3.1-6.3 6.6-6.3 6.6 0 0 0.3-7.2-5.1-8.6-0.7 5.3-6.6 7.4-6.8 7.5 0 0 1.9-8-4-7.3-0.1 1.6 0 6-4.2 7.4-1.7-4.6-7.8-1.1-7.8-1.1-4.5-0.7-7.8-2.4-9.8-5.1-2.5-3.3-2-6.9-1.9-7.4 1.1-8.5-5.8-35.7-8.1-41.6q-0.4-0.9-0.8-1.9c-1.5-3.4-3.3-7.6-1.7-11.6 1.3-3 4.3-5.5 9.3-7.4 5-2 9.9-9.7 14.1-22.2 2.8-8.5 4.4-16.6 4.8-18.6-3.6-8.8-6.2-17.1-7.8-24.9-3.9 8.1-9.3 15.5-16.6 19.7q-6.4 3.8-13.8 3.8-6.8 0-14.3-3.3l-0.3-0.1c-11.8-5.9-17.3-15.3-16.3-27.7 0.9-10.2 6-21.6 10.9-32.6 7-15.7 14.3-31.9 8.7-43.4-2.7-5.6-15.2-14.5-16.8-13.6zm137.2-131.7c2.4 0.9 5-1.9 12.8 0.2 0 0-16-7.7-18.2-8.2 3.6 4.1 2 6.7 5.4 8zm-31 26.8c-0.8-1.7-1.1-4-1.4-5.8-16.8 55.4 90.5 53.4 91.7 96.1 0.2-1.2 0.3-2.2 0.3-2.9 2.8-44.2-91.6-41.1-90.6-87.4zm15.1 8.1c-5.8-0.8-11.4-1.5-13.4-6.3 8.7 27.8 64.4 39 76.8 50.9-0.4-14.9-62.8-26.4-63.4-44.6zm75.3 92c-29.4-36.4-58.5-25.3-73.9-36.2-1.3 4.1-12.4 24.5-32.1 28.4h0.4c18.6 9.9 35.5-40.3 105.6 7.8z"/>
								</g>
							</g>
							<g id="&lt;Group&gt;">
								<path id="&lt;Path&gt;" class="s0" d="m1055.8 716.8c-79.5 13.7-129.6-45-168.3-44.5-15.1-0.2-28.9 3-39.9 14.8 41.9-26.8 138.8 71.8 208.2 29.7z"/>
							</g>
							<g id="&lt;Group&gt;">
								<path id="&lt;Path&gt;" class="s0" d="m320.3 716.8c79.5 13.7 129.6-45 168.4-44.5 15-0.2 28.8 3 39.8 14.8-41.9-26.8-138.8 71.8-208.2 29.7z"/>
							</g>
						</g>
						<g id="&lt;Group&gt;">
							<path id="&lt;Path&gt;" class="s0" d="m847.6 1049.7c-56.5 2.5-86.2-42.8-113.2-45.9-10.5-1.5-20.4-0.5-29.1 6.8 31.5-15 90.3 62.3 142.3 39.1z"/>
						</g>
						<g id="&lt;Group&gt;">
							<path id="&lt;Path&gt;" class="s0" d="m538.2 1049.7c56.6 2.5 86.3-42.8 113.3-45.9 10.5-1.5 20.4-0.5 29.1 6.8-31.6-15-90.3 62.3-142.4 39.1z"/>
						</g>
					</g>
				</g>
			</g>
		</g>
	</g>
</svg>